<?xml version="1.0" encoding="UTF-8" standalone="no"?>
<!DOCTYPE svg PUBLIC "-//W3C//DTD SVG 1.1//EN" "http://www.w3.org/Graphics/SVG/1.1/DTD/svg11.dtd">
<svg xmlns="http://www.w3.org/2000/svg" version="1.1" viewBox="0.00 0.00 463.00 107.00">
<g stroke-width="2.00" fill="none" stroke-linecap="butt">
<path stroke="#8693d2" vector-effect="non-scaling-stroke" d="
  M 81.53 30.41
  L 104.52 70.21"
/>
<path stroke="#d3569e" stroke-opacity="0.875" vector-effect="non-scaling-stroke" d="
  M 104.52 70.21
  C 103.29 70.08 102.39 70.68 102.52 71.99
  Q 102.65 73.28 103.45 74.32
  Q 103.74 74.69 104.15 74.45
  Q 104.43 74.29 104.75 74.26
  Q 104.96 74.25 105.14 74.84"
/>
<path stroke="#ff7c89" vector-effect="non-scaling-stroke" d="
  M 57.01 73.11
  L 44.92 52.01"
/>
<path stroke="#4889ae" stroke-opacity="0.875" vector-effect="non-scaling-stroke" d="
  M 106.27 73.22
  L 104.52 70.21"
/>
</g>
<path fill="#ff66c4" d="
  M 81.53 30.41
  L 104.52 70.21
  C 103.29 70.08 102.39 70.68 102.52 71.99
  Q 102.65 73.28 103.45 74.32
  Q 103.74 74.69 104.15 74.45
  Q 104.43 74.29 104.75 74.26
  Q 104.96 74.25 105.14 74.84
  L 94.29 93.55
  A 0.90 0.90 0.0 0 1 93.51 94.00
  L 70.01 94.00
  A 1.48 1.46 -14.6 0 1 68.73 93.26
  L 57.01 73.11
  L 44.92 52.01
  L 32.57 30.58
  Q 32.34 30.19 32.57 29.79
  L 43.81 10.55
  Q 44.13 10.00 44.77 10.00
  L 69.27 10.00
  A 0.95 0.94 -14.7 0 1 70.09 10.47
  L 81.53 30.41
  Z"
/>
<path fill="#0cc0df" d="
  M 106.27 73.22
  L 104.52 70.21
  L 81.53 30.41
  L 93.15 10.47
  Q 93.42 10.00 93.97 10.00
  L 118.55 10.00
  Q 119.18 10.00 119.50 10.55
  L 154.73 71.49
  A 2.95 2.95 0.0 0 1 154.73 74.47
  L 143.70 93.45
  A 1.11 1.09 -74.7 0 1 142.75 94.00
  L 118.79 94.00
  Q 118.33 94.00 118.09 93.60
  L 106.27 73.22
  Z"
/>
<path fill="#000000" d="
  M 431.74 29.00
  C 435.29 26.27 440.55 24.75 443.48 28.67
  C 446.40 32.58 445.32 46.29 445.20 51.31
  A 0.71 0.71 0.0 0 1 444.49 52.00
  L 437.40 51.99
  Q 436.75 51.99 436.75 51.34
  L 436.75 34.30
  A 1.82 1.82 0.0 0 0 434.73 32.49
  C 432.59 32.71 431.28 34.54 431.27 36.73
  Q 431.24 44.02 431.25 51.31
  Q 431.25 52.00 430.56 52.00
  L 423.75 52.00
  Q 423.00 52.00 423.00 51.25
  L 423.00 17.92
  Q 423.00 17.34 423.58 17.28
  L 430.65 16.56
  Q 431.29 16.50 431.28 17.14
  L 431.18 28.73
  Q 431.18 29.43 431.74 29.00
  Z"
/>
<path fill="#000000" d="
  M 334.7177 39.1036
  A 13.37 13.37 0.0 0 1 321.4178 52.5434
  L 318.9979 52.5561
  A 13.37 13.37 0.0 0 1 305.5581 39.2563
  L 305.5223 32.4364
  A 13.37 13.37 0.0 0 1 318.8222 18.9966
  L 321.2421 18.9839
  A 13.37 13.37 0.0 0 1 334.6819 32.2837
  L 334.7177 39.1036
  Z
  M 325.24 41.55
  C 326.40 37.00 327.43 24.68 319.55 25.06
  C 311.10 25.47 312.73 51.05 322.07 46.16
  Q 324.36 44.96 325.24 41.55
  Z"
/>
<path fill="#000000" d="
  M 193.79 19.56
  L 201.12 19.48
  A 0.61 0.60 -0.0 0 1 201.73 20.08
  Q 201.80 30.36 201.70 40.47
  C 201.54 57.09 176.09 56.85 175.57 41.69
  Q 175.37 35.88 175.55 20.18
  Q 175.55 19.50 176.24 19.50
  L 183.65 19.51
  A 0.58 0.58 0.0 0 1 184.23 20.09
  Q 184.28 31.60 184.27 42.92
  C 184.27 46.79 190.51 47.92 192.29 44.50
  C 194.23 40.79 193.01 25.07 192.99 20.38
  A 0.82 0.81 89.6 0 1 193.79 19.56
  Z"
/>
<path fill="#000000" d="
  M 227.23 46.04
  L 226.48 51.41
  A 0.69 0.69 0.0 0 1 225.80 52.00
  L 206.94 52.00
  A 0.69 0.69 0.0 0 1 206.25 51.31
  L 206.25 20.19
  A 0.69 0.69 0.0 0 1 206.94 19.50
  L 214.33 19.50
  A 0.69 0.69 0.0 0 1 215.02 20.19
  L 214.95 44.56
  A 0.69 0.69 0.0 0 0 215.64 45.25
  L 226.55 45.25
  A 0.69 0.69 0.0 0 1 227.23 46.04
  Z"
/>
<path fill="#000000" d="
  M 235.81 26.25
  L 228.95 26.24
  A 0.69 0.69 0.0 0 1 228.26 25.55
  L 228.24 20.19
  A 0.69 0.69 0.0 0 1 228.93 19.50
  L 252.86 19.50
  A 0.69 0.69 0.0 0 1 253.54 20.28
  L 252.81 25.66
  A 0.69 0.69 0.0 0 1 252.12 26.26
  L 245.69 26.21
  A 0.69 0.69 0.0 0 0 245.00 26.90
  L 245.00 51.31
  A 0.69 0.69 0.0 0 1 244.31 52.00
  L 237.19 52.00
  A 0.69 0.69 0.0 0 1 236.50 51.31
  L 236.50 26.94
  A 0.69 0.69 0.0 0 0 235.81 26.25
  Z"
/>
<rect fill="#000000" x="256.00" y="19.53" width="8.74" height="32.48" rx="0.73"/>
<path fill="#000000" d="
  M 293.74 29.78
  A 0.25 0.25 0.0 0 0 293.25 29.74
  L 289.63 47.96
  A 0.94 0.94 0.0 0 1 288.72 48.71
  L 282.02 48.76
  Q 281.44 48.76 281.30 48.20
  Q 279.21 39.52 277.67 30.82
  Q 277.62 30.55 277.34 30.52
  Q 277.08 30.50 277.08 30.75
  L 276.72 51.45
  A 0.55 0.55 0.0 0 1 276.17 51.99
  L 268.81 52.00
  Q 268.12 52.00 268.17 51.32
  L 270.48 20.14
  A 0.68 0.68 0.0 0 1 271.16 19.51
  L 280.53 19.50
  A 0.87 0.86 -5.2 0 1 281.38 20.20
  L 285.21 39.74
  A 0.33 0.33 0.0 0 0 285.86 39.74
  L 289.35 20.17
  Q 289.47 19.50 290.15 19.50
  L 299.60 19.51
  A 0.71 0.70 -2.2 0 1 300.31 20.16
  L 302.63 51.29
  Q 302.68 52.00 301.97 52.00
  L 294.67 52.00
  Q 294.09 52.00 294.08 51.42
  L 293.74 29.78
  Z"
/>
<path fill="#000000" d="
  M 348.54 19.75
  Q 360.09 19.23 371.74 19.60
  Q 372.38 19.62 372.29 20.25
  L 371.56 25.63
  A 0.73 0.72 -86.0 0 1 370.83 26.27
  L 364.90 26.19
  A 1.14 1.14 0.0 0 0 363.74 27.34
  L 363.78 51.61
  A 0.39 0.38 -0.0 0 1 363.39 51.99
  L 355.88 52.00
  Q 355.25 52.00 355.25 51.38
  L 355.25 27.08
  A 0.90 0.89 -0.3 0 0 354.34 26.19
  L 347.75 26.28
  A 0.72 0.72 0.0 0 1 347.02 25.56
  L 347.02 20.28
  A 0.65 0.64 -16.4 0 1 347.32 19.74
  Q 347.99 19.31 348.25 19.62
  Q 348.37 19.76 348.54 19.75
  Z"
/>
<path fill="#000000" d="
  M 374.40 45.08
  C 367.99 27.78 391.32 18.23 396.60 34.71
  C 397.17 36.48 397.13 38.95 397.29 40.89
  A 1.02 1.01 87.4 0 1 396.28 42.00
  L 382.72 42.00
  Q 382.12 42.00 382.10 42.60
  C 381.92 48.21 389.09 47.48 392.21 45.04
  A 0.66 0.66 0.0 0 1 393.14 45.16
  L 395.92 48.79
  Q 396.30 49.30 395.78 49.66
  C 388.79 54.56 377.83 54.30 374.40 45.08
  Z
  M 382.45 37.09
  L 388.51 37.07
  A 0.53 0.53 0.0 0 0 389.04 36.54
  L 389.04 36.22
  A 4.51 3.31 89.8 0 0 385.71 31.72
  L 385.21 31.72
  A 4.51 3.31 89.8 0 0 381.92 36.24
  L 381.92 36.56
  A 0.53 0.53 0.0 0 0 382.45 37.09
  Z"
/>
<path fill="#000000" d="
  M 413.35 46.30
  Q 414.17 46.11 415.00 45.97
  A 1.50 1.45 16.3 0 0 415.84 45.53
  Q 416.40 44.96 417.07 45.17
  Q 417.49 45.30 417.88 45.90
  Q 419.09 47.74 420.36 49.30
  A 0.70 0.69 -35.0 0 1 420.18 50.32
  C 408.42 57.65 396.35 48.34 400.24 34.96
  C 402.80 26.19 413.19 23.81 420.17 29.13
  Q 420.60 29.46 420.30 29.90
  L 417.67 33.71
  Q 417.34 34.19 416.81 33.94
  C 413.53 32.36 410.08 31.60 408.53 35.74
  C 407.45 38.64 407.47 47.65 413.35 46.30
  Z"
/>
<path fill="#ff914d" d="
  M 44.92 52.01
  L 57.01 73.11
  L 45.04 93.67
  Q 44.85 94.00 44.47 94.00
  L 20.51 94.00
  A 1.11 1.09 74.7 0 1 19.56 93.45
  L 7.98 73.48
  A 1.03 1.03 0.0 0 1 7.98 72.46
  L 19.58 52.50
  Q 19.86 52.02 20.41 52.02
  L 44.92 52.01
  Z"
/>
<path fill="#99406c" fill-opacity="0.749" d="
  M 104.52 70.21
  L 106.27 73.22
  Q 105.22 73.61 105.14 74.84
  Q 104.96 74.25 104.75 74.26
  Q 104.43 74.29 104.15 74.45
  Q 103.74 74.69 103.45 74.32
  Q 102.65 73.28 102.52 71.99
  C 102.39 70.68 103.29 70.08 104.52 70.21
  Z"
/>
<circle fill="#000000" cx="249.74" cy="72.84" r="1.73"/>
<circle fill="#000000" cx="311.46" cy="72.85" r="1.73"/>
<circle fill="#000000" cx="407.95" cy="72.85" r="1.73"/>
<path fill="#000000" d="
  M 330.72 77.61
  C 333.82 75.24 336.46 76.74 336.49 80.46
  Q 336.52 83.89 336.49 87.32
  Q 336.49 88.00 335.80 88.00
  L 334.13 88.00
  Q 333.50 88.00 333.50 87.38
  L 333.50 79.71
  A 0.96 0.96 0.0 0 0 332.58 78.75
  C 329.21 78.59 330.23 85.19 330.27 87.24
  Q 330.28 87.90 329.62 87.94
  L 328.01 88.02
  Q 327.21 88.06 327.22 87.26
  L 327.27 72.87
  A 0.62 0.61 90.0 0 1 327.88 72.25
  L 329.66 72.25
  Q 330.32 72.25 330.29 72.91
  L 330.13 77.30
  A 0.37 0.37 0.0 0 0 330.72 77.61
  Z"
/>
<rect fill="#000000" x="-1.53" y="-7.23" transform="translate(176.53,80.74) rotate(-0.2)" width="3.06" height="14.46" rx="0.54"/>
<rect fill="#000000" x="-1.62" y="-7.24" transform="translate(283.11,80.74) rotate(-0.2)" width="3.24" height="14.48" rx="0.67"/>
<rect fill="#000000" x="352.75" y="73.50" width="3.24" height="14.50" rx="0.65"/>
<path fill="#000000" d="
  M 382.63 84.66
  L 379.13 84.79
  Q 378.56 84.81 378.42 85.36
  L 377.88 87.50
  A 0.66 0.65 -82.5 0 1 377.25 87.99
  L 375.22 87.99
  A 0.47 0.47 0.0 0 1 374.77 87.38
  L 378.57 75.01
  A 2.46 2.45 44.9 0 1 383.26 75.01
  L 387.08 87.32
  Q 387.29 88.02 386.56 88.00
  L 384.54 87.95
  Q 383.94 87.94 383.82 87.35
  L 383.38 85.24
  Q 383.25 84.64 382.63 84.66
  Z
  M 379.33 82.13
  A 0.33 0.33 0.0 0 0 379.66 82.52
  L 382.16 82.48
  A 0.33 0.33 0.0 0 0 382.48 82.08
  L 381.14 76.49
  A 0.33 0.33 0.0 0 0 380.49 76.50
  L 379.33 82.13
  Z"
/>
<path fill="#000000" d="
  M 244.03 76.75
  Q 244.95 76.71 245.38 76.81
  A 1.11 1.11 0.0 0 1 245.13 79.00
  L 244.12 79.00
  Q 243.50 79.00 243.50 79.63
  L 243.50 85.08
  Q 243.50 85.66 244.08 85.70
  L 245.70 85.83
  A 1.10 1.10 0.0 0 1 245.94 87.97
  C 239.86 89.87 240.19 83.66 240.67 79.90
  Q 240.75 79.28 240.16 79.08
  L 239.12 78.73
  Q 238.61 78.55 238.72 78.02
  Q 238.95 76.91 240.09 76.71
  A 0.50 0.49 85.2 0 0 240.50 76.22
  L 240.50 74.95
  Q 240.50 74.46 240.98 74.37
  L 242.72 74.03
  Q 243.66 73.85 243.53 74.80
  L 243.36 76.02
  A 0.65 0.64 -87.8 0 0 244.03 76.75
  Z"
/>
<path fill="#000000" d="
  M 339.70 75.81
  Q 339.64 74.93 340.26 74.32
  A 1.46 1.46 0.0 0 1 342.75 75.36
  L 342.75 76.39
  A 0.61 0.60 87.8 0 0 343.40 77.00
  L 344.40 76.92
  Q 344.96 76.88 345.19 77.39
  Q 345.45 78.01 344.88 78.63
  Q 344.53 79.00 344.02 79.00
  L 343.38 79.00
  Q 342.75 79.00 342.75 79.63
  L 342.75 84.93
  Q 342.75 85.61 343.34 85.94
  Q 343.63 86.10 343.97 85.91
  Q 344.46 85.64 344.97 85.84
  Q 345.50 86.05 345.74 86.67
  Q 346.23 87.90 344.91 88.09
  C 338.45 89.03 339.70 83.33 339.73 79.51
  A 0.64 0.64 0.0 0 0 339.03 78.87
  Q 337.80 78.99 338.00 77.74
  Q 338.10 77.11 338.73 76.99
  Q 339.16 76.90 339.50 76.46
  Q 339.73 76.17 339.70 75.81
  Z"
/>
<path fill="#000000" d="
  M 395.00 79.30
  C 389.05 76.59 390.16 88.62 394.80 85.55
  A 1.08 1.08 0.0 0 1 396.47 86.34
  Q 396.63 87.82 395.04 88.15
  C 384.41 90.42 386.47 72.72 395.92 77.21
  Q 396.34 77.41 396.77 77.25
  L 398.34 76.66
  Q 398.78 76.49 398.73 76.02
  Q 398.67 75.43 398.83 74.94
  A 1.50 1.50 0.0 0 1 401.75 75.41
  L 401.75 76.44
  A 0.61 0.60 81.5 0 0 402.53 77.02
  Q 403.01 76.86 403.32 76.85
  A 1.03 1.03 0.0 0 1 403.50 78.90
  L 402.37 79.05
  Q 401.86 79.12 401.82 79.65
  Q 401.57 83.43 401.78 85.00
  Q 401.95 86.24 403.06 85.97
  Q 403.49 85.86 403.92 85.96
  Q 405.71 86.34 404.45 87.74
  A 1.08 1.08 0.0 0 1 403.78 88.09
  C 397.79 88.93 398.60 84.08 398.80 79.84
  Q 398.82 79.50 398.56 79.28
  Q 396.91 77.86 395.73 79.15
  Q 395.42 79.49 395.00 79.30
  Z"
/>
<path fill="#000000" d="
  M 324.11 79.03
  Q 324.47 79.14 324.75 79.84
  C 326.05 83.04 321.56 84.66 319.16 84.21
  A 0.58 0.58 0.0 0 0 318.49 84.89
  L 318.59 85.41
  A 0.63 0.63 0.0 0 0 319.33 85.91
  Q 322.62 85.27 325.08 87.34
  Q 325.45 87.65 325.49 88.14
  C 325.94 93.51 318.90 93.08 315.71 91.66
  A 1.57 1.56 41.8 0 1 315.55 88.88
  Q 316.27 88.46 317.47 89.46
  Q 320.21 91.75 322.61 89.61
  A 0.56 0.56 0.0 0 0 322.56 88.73
  C 320.41 87.27 317.12 89.01 316.02 86.31
  A 1.10 1.07 48.2 0 1 316.06 85.38
  L 316.75 84.02
  A 0.70 0.69 -55.7 0 0 316.60 83.20
  C 312.67 79.54 317.35 76.07 321.40 76.59
  A 0.35 0.32 -47.0 0 0 321.54 76.58
  L 324.64 75.53
  Q 325.21 75.34 325.42 75.91
  L 325.72 76.74
  Q 326.10 77.75 325.02 77.75
  L 324.25 77.75
  A 0.67 0.64 52.5 0 0 324.11 79.03
  Z
  M 322.02 80.51
  A 1.95 1.95 0.0 0 0 320.07 78.56
  A 1.95 1.95 0.0 0 0 318.12 80.51
  A 1.95 1.95 0.0 0 0 320.07 82.46
  A 1.95 1.95 0.0 0 0 322.02 80.51
  Z"
/>
<path fill="#000000" d="
  M 185.01 77.54
  Q 187.76 75.23 190.12 78.03
  Q 190.43 78.39 190.43 78.86
  L 190.57 87.35
  Q 190.58 88.02 189.91 88.01
  L 188.14 87.98
  Q 187.50 87.97 187.50 87.33
  L 187.50 79.74
  A 1.00 0.99 89.4 0 0 186.49 78.74
  C 183.22 78.79 184.24 85.12 184.26 87.22
  A 0.77 0.77 0.0 0 1 183.49 88.00
  L 181.75 88.00
  Q 181.19 88.00 181.19 87.44
  L 181.28 77.60
  A 0.95 0.94 15.0 0 1 182.69 76.79
  L 184.15 77.62
  Q 184.61 77.88 185.01 77.54
  Z"
/>
<path fill="#000000" d="
  M 196.91 77.56
  C 204.60 73.22 202.61 84.01 202.84 87.38
  Q 202.89 87.99 202.28 87.99
  L 200.40 87.99
  Q 199.75 87.99 199.75 87.34
  L 199.75 79.56
  Q 199.75 79.07 199.29 78.89
  C 197.80 78.32 196.63 79.32 196.56 80.88
  Q 196.41 84.05 196.54 87.24
  Q 196.56 87.97 195.84 87.98
  L 194.13 88.01
  Q 193.50 88.02 193.50 87.38
  L 193.50 77.80
  Q 193.50 77.27 193.98 77.03
  Q 195.19 76.42 196.03 77.40
  A 0.71 0.70 -34.3 0 0 196.91 77.56
  Z"
/>
<path fill="#000000" d="
  M 210.0280 88.3477
  A 5.92 5.39 93.7 0 1 205.0312 82.0922
  A 5.92 5.39 93.7 0 1 210.7920 76.5323
  A 5.92 5.39 93.7 0 1 215.7888 82.7878
  A 5.92 5.39 93.7 0 1 210.0280 88.3477
  Z
  M 210.3966 86.1800
  A 3.76 2.25 89.9 0 0 212.6400 82.4161
  A 3.76 2.25 89.9 0 0 210.3834 78.6600
  A 3.76 2.25 89.9 0 0 208.1400 82.4239
  A 3.76 2.25 89.9 0 0 210.3966 86.1800
  Z"
/>
<path fill="#000000" d="
  M 233.24 81.23
  A 1.33 1.24 -52.6 0 0 232.99 78.67
  L 229.91 79.14
  Q 229.36 79.22 229.21 78.69
  L 228.98 77.92
  Q 228.80 77.31 229.41 77.14
  C 237.55 74.95 237.25 78.73 237.25 85.17
  A 0.91 0.89 24.0 0 0 237.49 85.78
  Q 238.31 86.67 237.65 87.72
  Q 237.28 88.29 236.66 88.03
  L 234.92 87.30
  Q 234.51 87.12 234.14 87.38
  C 228.89 91.07 224.96 83.03 230.85 81.41
  C 231.68 81.19 232.46 81.38 233.24 81.23
  Z
  M 234.2050 83.1462
  A 1.95 1.56 -40.4 0 0 231.7089 83.2220
  A 1.95 1.56 -40.4 0 0 231.2350 85.6738
  A 1.95 1.56 -40.4 0 0 233.7311 85.5980
  A 1.95 1.56 -40.4 0 0 234.2050 83.1462
  Z"
/>
<path fill="#000000" d="
  M 267.92 83.25
  A 1.02 1.02 0.0 0 0 267.31 85.08
  Q 269.57 86.77 272.07 85.46
  A 0.81 0.81 0.0 0 1 273.11 85.71
  Q 273.73 86.58 272.94 87.10
  C 264.41 92.62 260.36 78.55 268.27 76.67
  C 271.56 75.89 274.94 79.27 274.03 82.77
  Q 273.91 83.25 273.41 83.25
  L 267.92 83.25
  Z
  M 267.91 81.50
  L 270.51 81.50
  A 0.65 0.65 0.0 0 0 271.16 80.85
  L 271.16 80.72
  A 2.20 1.85 90.0 0 0 269.31 78.52
  L 269.11 78.52
  A 2.20 1.85 -90.0 0 0 267.26 80.72
  L 267.26 80.85
  A 0.65 0.65 0.0 0 0 267.91 81.50
  Z"
/>
<path fill="#000000" d="
  M 291.56 77.29
  Q 294.51 75.38 296.73 78.25
  A 1.10 1.05 -65.2 0 1 296.96 78.92
  L 297.08 87.42
  Q 297.09 87.97 296.53 87.98
  L 294.63 88.01
  Q 294.00 88.02 294.00 87.38
  L 294.00 79.71
  A 0.96 0.96 0.0 0 0 293.08 78.75
  C 289.70 78.60 290.74 85.21 290.75 87.27
  A 0.72 0.72 0.0 0 1 290.03 88.00
  L 288.50 88.00
  Q 287.75 88.00 287.75 87.25
  L 287.75 77.33
  A 0.64 0.64 0.0 0 1 288.58 76.72
  L 290.71 77.40
  Q 291.16 77.54 291.56 77.29
  Z"
/>
<path fill="#000000" d="
  M 302.83 80.61
  C 305.49 81.45 308.82 82.01 307.76 86.12
  Q 307.62 86.67 307.14 86.99
  Q 303.34 89.52 299.30 87.17
  A 0.63 0.62 -50.9 0 1 299.20 86.16
  L 299.90 85.53
  Q 300.19 85.26 300.56 85.43
  Q 302.42 86.32 304.45 85.92
  A 0.89 0.89 0.0 0 0 304.79 84.33
  C 303.24 83.22 301.06 83.02 299.93 81.66
  C 296.64 77.70 303.95 75.28 307.05 77.55
  A 1.04 1.04 0.0 0 1 305.96 79.31
  Q 304.58 78.61 303.02 78.75
  A 0.96 0.95 51.0 0 0 302.83 80.61
  Z"
/>
<path fill="#000000" d="
  M 362.83 77.35
  C 365.41 75.45 368.16 76.87 368.22 80.06
  Q 368.30 83.74 368.23 87.44
  Q 368.22 88.02 367.65 88.01
  L 365.89 87.98
  Q 365.25 87.97 365.25 87.33
  L 365.25 79.73
  A 1.00 1.00 0.0 0 0 364.19 78.73
  Q 362.89 78.81 362.22 80.08
  Q 362.00 80.50 362.00 80.98
  L 362.00 87.38
  Q 362.00 88.00 361.38 88.00
  L 359.75 88.00
  Q 359.00 88.00 359.00 87.25
  L 359.00 77.32
  A 0.64 0.64 0.0 0 1 359.85 76.72
  L 362.02 77.47
  Q 362.46 77.62 362.83 77.35
  Z"
/>
<path fill="#000000" d="
  M 416.9004 88.3948
  A 5.96 5.32 92.4 0 1 411.8347 82.2172
  A 5.96 5.32 92.4 0 1 417.3996 76.4852
  A 5.96 5.32 92.4 0 1 422.4653 82.6628
  A 5.96 5.32 92.4 0 1 416.9004 88.3948
  Z
  M 417.1565 86.1900
  A 3.75 2.25 89.9 0 0 419.4000 82.4361
  A 3.75 2.25 89.9 0 0 417.1435 78.6900
  A 3.75 2.25 89.9 0 0 414.9000 82.4439
  A 3.75 2.25 89.9 0 0 417.1565 86.1900
  Z"
/>
<path fill="#000000" d="
  M 428.45 77.29
  Q 431.34 75.48 433.57 78.02
  A 1.76 1.73 -66.0 0 1 434.00 79.17
  L 434.00 87.25
  Q 434.00 88.00 433.25 88.00
  L 431.66 88.00
  A 0.65 0.65 0.0 0 1 431.01 87.35
  L 431.00 79.50
  A 0.70 0.69 7.7 0 0 430.48 78.83
  C 426.66 77.83 427.74 85.36 427.75 87.30
  Q 427.76 88.00 427.06 88.00
  L 425.50 88.00
  Q 424.75 88.00 424.75 87.25
  L 424.75 77.33
  A 0.64 0.64 0.0 0 1 425.58 76.72
  L 427.67 77.39
  Q 428.09 77.52 428.45 77.29
  Z"
/>
<path fill="#000000" d="
  M 222.28 84.26
  Q 223.00 81.45 223.73 78.47
  C 224.14 76.83 225.07 76.12 226.65 76.98
  Q 227.11 77.23 226.95 77.73
  L 224.07 86.76
  A 2.29 2.29 0.0 0 1 219.71 86.78
  L 216.72 77.71
  Q 216.56 77.24 217.00 77.03
  C 220.69 75.23 220.99 82.01 221.38 84.22
  A 0.46 0.46 0.0 0 0 222.28 84.26
  Z"
/>
<rect fill="#000000" x="248.25" y="76.76" width="3.00" height="11.26" rx="0.70"/>
<path fill="#000000" d="
  M 257.46 84.44
  A 0.39 0.39 0.0 0 0 258.22 84.46
  L 260.06 77.29
  Q 260.20 76.73 260.78 76.75
  L 262.42 76.81
  Q 263.20 76.84 262.96 77.58
  L 260.07 86.76
  A 2.29 2.29 0.0 0 1 255.70 86.78
  L 252.76 77.67
  Q 252.58 77.10 253.13 76.87
  C 256.70 75.36 257.02 82.38 257.46 84.44
  Z"
/>
<rect fill="#000000" x="-1.50" y="-5.62" transform="translate(311.50,82.38) rotate(0.1)" width="3.00" height="11.24" rx="0.64"/>
<rect fill="#000000" x="406.50" y="76.80" width="3.00" height="11.22" rx="0.74"/>
</svg>
